<?xml version="1.0" encoding="utf-8"?>
<!DOCTYPE svg PUBLIC "-//W3C//DTD SVG 1.1//EN" "http://www.w3.org/Graphics/SVG/1.1/DTD/svg11.dtd">
<svg version="1.1" id="Laag_1" xmlns="http://www.w3.org/2000/svg" xmlns:xlink="http://www.w3.org/1999/xlink" x="0px" y="0px"
	 width="15px" height="15px" viewBox="0 0 15 15" enable-background="new 0 0 15 15" xml:space="preserve">
<g>
	<path fill="#FFFFFF" d="M11.041,2.547L6.088,7.5l4.953,4.953c0.076,0.076,0.127,0.189,0.127,0.29s-0.051,0.214-0.127,0.29
		l-0.629,0.63c-0.076,0.076-0.189,0.126-0.291,0.126c-0.1,0-0.213-0.05-0.289-0.126L3.958,7.79C3.883,7.714,3.832,7.601,3.832,7.5
		s0.051-0.214,0.126-0.29l5.874-5.873c0.076-0.076,0.189-0.126,0.289-0.126c0.102,0,0.215,0.05,0.291,0.126l0.629,0.63
		c0.076,0.076,0.127,0.177,0.127,0.29C11.168,2.357,11.117,2.471,11.041,2.547z"/>
</g>
</svg>
