<?xml version="1.0" encoding="utf-8"?>
<!-- Generator: Adobe Illustrator 16.0.0, SVG Export Plug-In . SVG Version: 6.00 Build 0)  -->
<!DOCTYPE svg PUBLIC "-//W3C//DTD SVG 1.1//EN" "http://www.w3.org/Graphics/SVG/1.1/DTD/svg11.dtd">
<svg version="1.1" id="Laag_1" xmlns="http://www.w3.org/2000/svg" xmlns:xlink="http://www.w3.org/1999/xlink" x="0px" y="0px"
	 width="50px" height="50px" viewBox="0 0 50 50" enable-background="new 0 0 50 50" xml:space="preserve">
<path fill="#00777F" d="M32.542,21.031c-1.742-5.804-2.408-9.575-2.408-9.575s-1.072-6.978-6.977-6.978s-6.978,6.978-6.978,6.978
	s-0.668,3.771-2.408,9.575C10.194,32.482,6.34,32.208,6.34,32.208s2.058,12.703,14.579,5.636c0,0,0.966,1.904,4.563,5.098
	c5.691,4.501,8.049-2.66,8.049-2.66c8.271,0.339,13.866-5.836,13.866-5.836S36.663,37.575,32.542,21.031z"/>
<image display="none" overflow="visible" enable-background="new    " width="25" height="41" xlink:href="5B4FBD5DE850AAED.png"  transform="matrix(1 0 0 1 13.0005 4)">
</image>
<g>
	<path fill="#FFFFFF" d="M19.729,12.527c-0.698-0.244-0.977-1.261-0.623-2.271c0.354-1.01,1.207-1.63,1.906-1.387
		c0.697,0.245,0.976,1.262,0.622,2.272C21.28,12.152,20.426,12.772,19.729,12.527z M23.759,20.32
		c-0.647-0.219-1.347-0.974-1.783-2.005c-0.241-0.569-0.362-1.138-0.377-1.637v0.001c0,0,0-0.002,0-0.004
		c-0.002-0.114,0-0.223,0.009-0.328c-0.002-0.488-0.076-1.375-0.549-1.609c-0.615-0.302,1.517,0.271,1.843,0.358
		c0.008,0.003,0.015,0.004,0.024,0.007c0.011,0.003,0.018,0.004,0.018,0.004l-0.001,0.001c0.663,0.196,1.391,0.962,1.836,2.022
		c0.358,0.849,0.458,1.694,0.317,2.311c-0.062,0.399-0.135,1.282,0.296,1.646C25.959,21.564,23.764,20.323,23.759,20.32z
		 M26.167,13.326c-0.888,0.312-1.973-0.478-2.423-1.763c-0.451-1.285-0.097-2.58,0.79-2.89c0.89-0.312,1.975,0.477,2.425,1.762
		C27.409,11.722,27.055,13.014,26.167,13.326z"/>
	<path fill="#518E96" d="M47.397,34.445c0,0-5.595,6.175-13.866,5.836l0,0c0,0,1.938-6.67,4.385-4.703
		c2.445,1.968,3.876,1.551,6.977,0.298C45.521,35.615,47.397,34.445,47.397,34.445"/>
	<path fill="#518E96" d="M20.919,37.844C8.397,44.911,6.34,32.208,6.34,32.208l0,0c0,0,0.537,4.832,6.619,3.042
		C18.953,32.835,20.919,37.844,20.919,37.844"/>
</g>
</svg>
