<?xml version="1.0" encoding="utf-8"?>
<!-- Generator: Adobe Illustrator 16.0.0, SVG Export Plug-In . SVG Version: 6.00 Build 0)  -->
<!DOCTYPE svg PUBLIC "-//W3C//DTD SVG 1.1//EN" "http://www.w3.org/Graphics/SVG/1.1/DTD/svg11.dtd">
<svg version="1.1" id="Laag_1" xmlns="http://www.w3.org/2000/svg" xmlns:xlink="http://www.w3.org/1999/xlink" x="0px" y="0px"
	 width="50px" height="50px" viewBox="0 0 50 50" enable-background="new 0 0 50 50" xml:space="preserve">
<image display="none" overflow="visible" enable-background="new    " width="25" height="41" xlink:href="5B4FBD5DE850AAED.png"  transform="matrix(1 0 0 1 13 4)">
</image>
<g>
	<path fill="#FFFFFF" d="M38.252,22.428l-9.459,20.113c-0.546,1.145-1.741,1.845-2.988,1.845c-1.247,0-2.443-0.7-2.962-1.845
		l-9.485-20.113c-0.675-1.429-0.857-3.066-0.857-4.651c0-7.354,5.951-13.305,13.306-13.305s13.305,5.951,13.305,13.305
		C39.109,19.361,38.928,20.999,38.252,22.428z M25.805,11.124c-3.664,0-6.652,2.988-6.652,6.652s2.988,6.652,6.652,6.652
		c3.664,0,6.652-2.988,6.652-6.652S29.469,11.124,25.805,11.124z"/>
</g>
<circle fill="none" stroke="#FFFFFF" stroke-width="4" stroke-miterlimit="10" cx="25.807" cy="17.812" r="5.994"/>
</svg>
