<?xml version="1.0" encoding="utf-8"?>
<!-- Generator: Adobe Illustrator 16.0.0, SVG Export Plug-In . SVG Version: 6.00 Build 0)  -->
<!DOCTYPE svg PUBLIC "-//W3C//DTD SVG 1.1//EN" "http://www.w3.org/Graphics/SVG/1.1/DTD/svg11.dtd">
<svg version="1.1" id="Laag_1" xmlns="http://www.w3.org/2000/svg" xmlns:xlink="http://www.w3.org/1999/xlink" x="0px" y="0px"
	 width="44px" height="44px" viewBox="0 0 44 44" enable-background="new 0 0 44 44" xml:space="preserve">
<g>
	<path fill="#F2F2F2" d="M31.553,38.675H11.668c-3.618,0-6.075-2.207-6.075-5.893c0-5.142,1.206-13.036,7.872-13.036
		c0.706,0,3.686,3.162,8.145,3.162s7.439-3.162,8.145-3.162c6.666,0,7.872,7.895,7.872,13.036
		C37.627,36.468,35.17,38.675,31.553,38.675z M21.61,21.202c-4.823,0-8.736-3.913-8.736-8.736s3.913-8.736,8.736-8.736
		s8.736,3.913,8.736,8.736S26.434,21.202,21.61,21.202z"/>
</g>
</svg>
