<?xml version="1.0" encoding="utf-8"?>
<!-- Generator: Adobe Illustrator 16.0.0, SVG Export Plug-In . SVG Version: 6.00 Build 0)  -->
<!DOCTYPE svg PUBLIC "-//W3C//DTD SVG 1.1//EN" "http://www.w3.org/Graphics/SVG/1.1/DTD/svg11.dtd">
<svg version="1.1" id="Laag_1" xmlns="http://www.w3.org/2000/svg" xmlns:xlink="http://www.w3.org/1999/xlink" x="0px" y="0px"
	 width="425.2px" height="425.2px" viewBox="0 0 425.2 425.2" enable-background="new 0 0 425.2 425.2" xml:space="preserve">
<path fill="#00777F" d="M265.491,180.433c-16.365-54.566-22.637-90.009-22.637-90.009s-10.092-65.586-65.587-65.586
	c-55.496,0-65.586,65.586-65.586,65.586s-6.273,35.442-22.638,90.009C55.408,288.062,19.187,285.502,19.187,285.502
	s19.34,119.401,137.059,52.974c0,0,9.065,17.898,42.884,47.929c53.516,42.296,75.668-25.021,75.668-25.021
	c77.746,3.194,130.34-54.859,130.34-54.859S304.235,335.954,265.491,180.433z"/>
<g>
	<path fill="#FFFFFF" d="M145.053,100.493c-6.562-2.301-9.181-11.861-5.851-21.356c3.327-9.493,11.344-15.326,17.906-13.025
		c6.56,2.3,9.18,11.861,5.851,21.355C159.629,96.961,151.613,102.792,145.053,100.493z M182.936,173.752
		c-6.084-2.073-12.671-9.163-16.765-18.862c-2.259-5.354-3.415-10.696-3.536-15.386l-0.004,0.004c0,0,0.001-0.016,0.003-0.039
		c-0.026-1.059,0.001-2.083,0.08-3.067c-0.029-4.603-0.719-12.931-5.171-15.125c-5.773-2.846,14.258,2.535,17.319,3.364
		c0.08,0.021,0.159,0.042,0.239,0.065c0.096,0.026,0.162,0.044,0.162,0.044l-0.004,0.004c6.22,1.846,13.058,9.051,17.264,19.016
		c3.365,7.974,4.29,15.924,2.979,21.726c-0.565,3.755-1.271,12.043,2.786,15.46C203.608,185.435,182.98,173.777,182.936,173.752z
		 M205.567,108c-8.349,2.926-18.549-4.495-22.785-16.576c-4.235-12.081-0.902-24.246,7.444-27.172
		c8.35-2.927,18.55,4.495,22.785,16.574C217.249,92.908,213.915,105.073,205.567,108z"/>
	<path fill="#518E96" d="M405.138,306.523c0,0-52.594,58.054-130.34,54.859l0,0c0,0,18.227-62.707,41.209-44.208
		c22.986,18.499,36.438,14.574,65.588,2.803C387.511,317.525,405.138,306.523,405.138,306.523"/>
	<path fill="#518E96" d="M156.246,338.476C38.527,404.903,19.187,285.502,19.187,285.502l0,0c0,0,5.044,45.407,62.223,28.589
		C137.748,291.389,156.246,338.476,156.246,338.476"/>
</g>
</svg>
